# xmcd CD database file
#
# Track frame offsets:
#	150
#	15037
#	28107
#	35416
#	45280
#	58548
#	74567
#	83714
#	93571
#	105472
#	119856
#	134737
#	147986
#	162126
#
# Disc length: 2370 seconds
#
# Revision: 1
# Processed by: cddbd v1.5.2PL0 Copyright (c) Steve Scherf et al.
# Submitted via: CDex 1.76
#
DISCID=bb09400e
DTITLE=Nick Makson - 475 - Pedalsn Bend
DYEAR=1900
DGENRE=Jazz
TTITLE0=Lullaby of Birdland
TTITLE1=Georgia on my Mind
TTITLE2=Sweet Sue
TTITLE3=Smog gets in your Eyes
TTITLE4=My Romance
TTITLE5=Besame Mucho
TTITLE6=Between teh Devil and the deep blue Sea
TTITLE7=I am beginning to see the Light
TTITLE8=Fly me to the Moon
TTITLE9=Waterloo Sunset
TTITLE10=Take Five
TTITLE11=When Sunny gets blue
TTITLE12=Watermelon-Man
TTITLE13=What a Difference a Day makes
EXTD=
EXTT0=
EXTT1=
EXTT2=
EXTT3=
EXTT4=
EXTT5=
EXTT6=
EXTT7=
EXTT8=
EXTT9=
EXTT10=
EXTT11=
EXTT12=
EXTT13=
PLAYORDER=
